<svg width="20" height="20" viewBox="0 0 25 25" fill="none" xmlns="http://www.w3.org/2000/svg">
<path fill-rule="evenodd" clip-rule="evenodd" d="M12.5 25C19.4036 25 25 19.4036 25 12.5C25 5.59644 19.4036 0 12.5 0C5.59644 0 0 5.59644 0 12.5C0 19.4036 5.59644 25 12.5 25ZM18.2071 6.79287C18.5976 7.1834 18.5976 7.81656 18.2071 8.20709L13.9142 12.5L18.2071 16.7929C18.5976 17.1834 18.5976 17.8166 18.2071 18.2071C17.8166 18.5976 17.1834 18.5976 16.7929 18.2071L12.5 13.9142L8.2071 18.2071C7.81658 18.5976 7.18341 18.5976 6.79289 18.2071C6.40236 17.8166 6.40236 17.1834 6.79289 16.7929L11.0858 12.5L6.79289 8.20709C6.40236 7.81656 6.40236 7.1834 6.79289 6.79287C7.18341 6.40235 7.81658 6.40235 8.2071 6.79287L12.5 11.0858L16.7929 6.79287C17.1834 6.40235 17.8166 6.40235 18.2071 6.79287Z" fill="#FFA434"/>
</svg>
