<svg width="16" height="15" viewBox="0 0 16 15" fill="none" xmlns="http://www.w3.org/2000/svg">
<circle cx="7.83331" cy="7.5" r="7.5" fill="#444444"/>
<path d="M7.83335 5.54251C8.51954 5.54251 9.07582 4.97334 9.07582 4.27126C9.07582 3.56917 8.51954 3 7.83335 3C7.14715 3 6.59091 3.56917 6.59091 4.27126C6.59091 4.97334 7.14715 5.54251 7.83335 5.54251Z" fill="white"/>
<path d="M7.83134 8.19996H6.51794V7.22964L5.51349 8.26416C5.0597 8.72845 4.44462 8.13312 4.89915 7.668L6.56231 5.9631C6.69721 5.82606 6.84485 5.73887 7.07914 5.73887H7.83134H7.83259H8.57049C8.80478 5.73887 8.96281 5.8234 9.10164 5.9631L10.7817 7.68472C11.2144 8.12746 10.5827 8.72845 10.1677 8.28115L9.13689 7.22432V8.19996H7.83259H7.83134Z" fill="white"/>
<path d="M9.13145 8.70317L8.14438 9.71317L8.86908 10.4532L8.1265 11.213C7.68824 11.6614 8.29285 12.3028 8.74607 11.8391L9.92046 10.5897C10.1725 10.3266 10.2422 9.84049 9.97199 9.56403C9.97108 9.56309 9.13145 8.70317 9.13145 8.70317Z" fill="white"/>
<path d="M6.51814 8.70317L7.50521 9.71317L6.78051 10.4532L7.52309 11.213C7.96135 11.6614 7.35674 12.3028 6.90352 11.8391L5.72913 10.5897C5.47709 10.3266 5.40739 9.84049 5.6776 9.56403C5.67852 9.56309 6.51814 8.70317 6.51814 8.70317Z" fill="white"/>
</svg>
