<svg width="16" height="15" viewBox="0 0 16 15" fill="none"
    xmlns="http://www.w3.org/2000/svg">
    <circle cx="8.16666" cy="7.5" r="7.5" fill="#444444"/>
    <path d="M7.24077 11.2755C6.60797 11.2755 6.00109 11.0241 5.55363 10.5767C5.10618 10.1292 4.8548 9.52231 4.8548 8.88951C4.8548 8.25671 5.10618 7.64983 5.55363 7.20238C6.00109 6.75492 6.60797 6.50354 7.24077 6.50354V5.86728C6.64303 5.86728 6.05871 6.04453 5.56171 6.37662C5.06471 6.70871 4.67734 7.18071 4.44859 7.73296C4.21985 8.2852 4.16 8.89287 4.27661 9.47912C4.39322 10.0654 4.68106 10.6039 5.10373 11.0266C5.5264 11.4492 6.06491 11.7371 6.65116 11.8537C7.23742 11.9703 7.84509 11.9104 8.39733 11.6817C8.94957 11.453 9.42158 11.0656 9.75367 10.5686C10.0858 10.0716 10.263 9.48726 10.263 8.88951H9.62675C9.62675 9.52231 9.37537 10.1292 8.92791 10.5767C8.48046 11.0241 7.87357 11.2755 7.24077 11.2755Z" fill="white"/>
    <path d="M11.8218 10.6393L11.5355 8.05922L11.2174 7.77608H8.3542V7.13982H9.62672V6.50356H8.3542V5.50463C8.65409 5.4272 8.91544 5.24306 9.08928 4.98671C9.26311 4.73037 9.33748 4.41943 9.29845 4.11218C9.25942 3.80492 9.10968 3.52245 8.87728 3.3177C8.64489 3.11296 8.3458 3 8.03607 3C7.72635 3 7.42726 3.11296 7.19486 3.3177C6.96247 3.52245 6.81272 3.80492 6.7737 4.11218C6.73467 4.41943 6.80904 4.73037 6.98287 4.98671C7.1567 5.24306 7.41806 5.4272 7.71794 5.50463V8.09421L8.03607 8.41234H10.9311L11.2174 10.9924L11.5355 11.2755H12.4899V10.6393H11.8218ZM7.39981 4.27665C7.39981 4.15081 7.43713 4.0278 7.50704 3.92316C7.57696 3.81853 7.67633 3.73698 7.79259 3.68882C7.90885 3.64067 8.03678 3.62807 8.1602 3.65262C8.28362 3.67717 8.39699 3.73776 8.48598 3.82675C8.57496 3.91573 8.63556 4.0291 8.66011 4.15252C8.68466 4.27594 8.67206 4.40388 8.6239 4.52014C8.57574 4.6364 8.49419 4.73577 8.38956 4.80568C8.28493 4.87559 8.16191 4.91291 8.03607 4.91291C7.86733 4.91291 7.70549 4.84588 7.58617 4.72655C7.46685 4.60723 7.39981 4.4454 7.39981 4.27665Z" fill="white"/>
</svg>
