<svg width="15" height="15" viewBox="0 0 15 15" fill="none"
    xmlns="http://www.w3.org/2000/svg">
    <circle cx="7.5" cy="7.5" r="7.5" fill="#444444"/>
    <path d="M7.5 3C5.01477 3 3 5.01477 3 7.5C3 9.98533 5.01477 12 7.5 12C9.98533 12 12 9.98533 12 7.5C12 5.01477 9.98533 3 7.5 3ZM7.5 11.1818C5.46661 11.1818 3.81818 9.53338 3.81818 7.5C3.81818 5.46661 5.46661 3.81818 7.5 3.81818C9.53338 3.81818 11.1818 5.46661 11.1818 7.5C11.1818 9.53338 9.53338 11.1818 7.5 11.1818Z" fill="white"/>
    <path d="M7.909 7.33053V5.04545C7.909 4.81953 7.72583 4.63636 7.49991 4.63636C7.27399 4.63636 7.09082 4.81953 7.09082 5.04545V7.5C7.09082 7.50092 7.09113 7.50184 7.09113 7.50276C7.09123 7.52863 7.09379 7.55451 7.0989 7.57997C7.10135 7.59255 7.10596 7.60391 7.10954 7.61618C7.11352 7.62968 7.11659 7.64338 7.12201 7.65658C7.12795 7.67069 7.13592 7.68358 7.14329 7.69687C7.14881 7.7071 7.15321 7.71733 7.15965 7.72704C7.17468 7.74964 7.19176 7.77082 7.21089 7.78974L8.3677 8.94665C8.52745 9.1064 8.78671 9.1064 8.94635 8.94665C9.10611 8.7869 9.10611 8.52763 8.94635 8.36819L7.909 7.33053Z" fill="white"/>
</svg>
