<svg width="195" height="200" viewBox="0 0 195 200" fill="none" xmlns="http://www.w3.org/2000/svg">
<path d="M64.5 64.5C62.9 64.5 60.5 63.1667 59.5 62.5C59.9 64.1 60 65.5 60 66L53.5 65V63.5L52 59.5L50.5 54L62 46L67 48C67 49 68 53.3823 68 57C68 61 66.5 64.5 64.5 64.5Z" fill="#D4A181"/>
<path d="M66 49.5C64 49.5 60.5 52.1667 59 53.5C58.5 53.1667 57.2 52.8 56 54C54.8 55.2 55.1667 56.5 55.5 57C57 59.1667 53.5 63.5 53.5 63.5C47 63.5 42.5 58.5 42.5 52C42.5 45.5 47 39 56.5 39C66 39 69 44 69 48C69 51.2 68 52.5 67.5 52.5C67 52.5 68 49.5 66 49.5Z" fill="#3D2C2C"/>
<path d="M93 109.5C93 109.5 90.6667 107 89.5 106L86 109.786C87.3333 109.691 88.5 110.5 90 112C91.5 113.5 94 118 95 117.5C95.5 117 94 115.627 94.5 114.814C95 114 100.971 115.5 101.072 114.814C101.313 113.194 93 109.5 93 109.5Z" fill="#D4A181"/>
<path d="M29.5 125.5C30.5 123.5 30.3333 122.667 30.5 121.5H35.5C35 122.5 34 125 34 127C34 128.026 36 134 34.5 133C33 132 32 131 31.5 131C31 131 27.5 134 24.5 134C21.5 134 21.5 132.5 21.5 132C21.5 131.5 28.5 127.5 29.5 125.5Z" fill="#D4A181"/>
<path d="M45 99.5C45 99.5 39 139 38 141.5C37 144 12.5 152 12.5 152L14.5 158.5C24.1667 160.333 45.5 160.5 51.5 155.5C57.5 150.5 64.8333 121.333 67.5 108.5L45 99.5Z" fill="#393F82"/>
<path d="M53 64.5L62 66.5V71L66 84L74 108.5H61.5L56.5 109.5L53 64.5Z" fill="#C7D1D9"/>
<path d="M53 64.5L56.5 65.5C57.6667 66.8333 59.8 70.8 59 76C58.2 81.2 61 105.167 62.5 116.5H43V121.5H29.5C31.5473 101.027 32.5 89 53 64.5Z" fill="#FFA434"/>
<path d="M79 118C66.6 104.4 62.5 80.6667 62 70.5C68.8 86.9 83.5 100.667 90 105.5L79 118Z" fill="#E87613"/>
<path d="M71.5 108.5H67.5L60 137C68.8 154.2 85.6667 176.833 93 186L102 183C93.6 157 78.1667 122.5 71.5 108.5Z" fill="#191847"/>
<path d="M6 155C6.16666 154.508 13 152.5 13 152.5L14.2381 158C14.2381 158 7.16667 159.333 7 159C5.4 157.8 5.66667 155.833 6 155Z" fill="#D4A181"/>
<path d="M99.5 183L95 185C95.3333 186.333 96.4 189.3 98 190.5C99.6 191.7 101.667 190.333 102.5 189.5L99.5 183Z" fill="#D4A181"/>
<path d="M116.943 196.054C115.957 195.887 96.1463 196.068 96.1463 196.068C94.9714 193.433 95.4374 189.741 97 189.5C97.465 189.748 98 190.5 100 190.5C102 190.5 102.553 189.211 103.077 188.117C108.339 190.59 116.544 192.436 117.446 193.097C118.348 193.757 117.929 196.222 116.943 196.054Z" fill="#FEFEFE"/>
<path d="M3.51101 174.848C3.52622 173.848 0.323321 154.297 0.323321 154.297C2.74739 152.734 6.46708 152.631 6.9442 154.139C6.76994 154.636 6.10858 155.28 6.41387 157.256C6.71916 159.233 8.07714 159.583 9.2386 159.934C7.59752 165.511 7.02582 173.902 6.51066 174.894C5.9955 175.886 3.49579 175.848 3.51101 174.848Z" fill="#FEFEFE"/>
<path d="M43 99.5V116.5H47.5C45.5 116.5 43.6667 105.167 43 99.5Z" fill="#E5932F"/>
<path d="M55.5 105H47L55.5 101.5V105Z" fill="#FFB65D"/>
<path d="M147 12.5L145 19L151.5 20L150.5 15.5C152 16.2491 155.2 17.7473 156 17.7473C157 17.7473 158.5 17 158.5 11C158.5 6.2 157.5 3.66667 157 3C156.167 2 153.8 0 151 0C147.5 0 144 1.5 144 6C144 9.6 146 11.8333 147 12.5Z" fill="#D4A181"/>
<path d="M186.5 41C186.1 41.4 184 42.1667 183 42.5L185 46.5C185.833 45.8333 187.5 44.4 187.5 44C187.5 43.5 192.752 42.8321 194 42C195.5 41 191.717 41.1512 191.5 40.5C191.1 39.3 195 36.5 194.5 35.5C194 34.5 187.728 39.772 186.5 41Z" fill="#D4A181"/>
<path d="M108.5 72C110.1 71.2 111.833 69.6667 112.5 69L117.5 70C117 70.5 116 71.8382 116 73.1909C116 74.5436 117.5 78.5 116.5 78.5C115.5 78.5 114.7 75.5 113.5 75.5C112 75.5 109 76.5 106.5 77C104.5 77.4 103.667 75.5 103.5 74.5C103.302 73.3095 106.9 72.8 108.5 72Z" fill="#D4A181"/>
<path d="M161 59.5H159L148 76.5L170 134H177L161 59.5Z" fill="#191847"/>
<path d="M136.5 93.5V65L155 56.5L159 59C160 64 148.824 94.4658 146 98.5C142.5 103.5 124.167 114.667 113.5 121.5L109 115.5L136.5 93.5Z" fill="#393F82"/>
<path d="M168.812 133.837L169.515 133.768L177.008 134.105L191.5 140L191.5 141.622L176.5 141.622C175.568 141.53 173.63 141.057 172.698 140.918L172.767 141.622L168.861 141.647L168.812 133.837Z" fill="#191847"/>
<path d="M108.386 114.603L108.877 115.112L113.273 121.188L117.669 136.204L116.398 137.213L107.071 125.466C106.563 124.679 105.728 122.867 105.257 122.051L104.749 122.542L102.301 119.499L108.386 114.603Z" fill="#191847"/>
<path d="M153 19.5L147 19L154 59.5H163C163.8 59.5 163.667 57.8333 163.5 57C176 56 182.167 49.8333 185.5 47L183 42C173.5 45.5 165.5 46.5 162.5 40C160.1 34.8 155.5 25.1667 153 21.5V19.5Z" fill="#C7D1D9"/>
<path d="M144.274 18.5H147.823C152.145 29.5 156 42.5 156 49C156 60.8796 154.203 64.9189 153.52 66.4541L153.5 66.5H129C129 57.5 132 49 132 49C128.4 56.6 121.5 66.5 118.5 70.5L112.5 69C116.9 40.2 135.516 23.3333 144.274 18.5Z" fill="#F2F2F2"/>
</svg>
