<svg width="100" height="59" viewBox="0 0 100 59" fill="none" xmlns="http://www.w3.org/2000/svg">
<path d="M5.08684 24.9693C5.09624 25.3456 5.11976 25.6512 5.15738 25.8864C5.20441 26.1121 5.28435 26.4319 5.39722 26.8457L5.42543 26.9304L7.78149 35.7197L10.1093 26.6764V26.6623C10.2034 26.3237 10.2692 26.0416 10.3068 25.8158C10.3539 25.5807 10.3915 25.2985 10.4197 24.9693H11.1674C10.9887 25.3362 10.8571 25.6324 10.7724 25.8582C10.6972 26.0745 10.6172 26.3425 10.5326 26.6623L8.41635 34.8591C8.34111 35.1789 8.29408 35.4235 8.27527 35.5927C8.26586 35.762 8.29878 35.9831 8.37403 36.2558H3.70424L1.22122 26.9304C1.10835 26.4883 0.990783 26.1262 0.868513 25.844C0.755648 25.5619 0.614567 25.2703 0.44527 24.9693H5.08684ZM12.3948 24.9693C12.4042 25.3456 12.4278 25.6512 12.4654 25.8864C12.5124 26.1121 12.5924 26.4319 12.7052 26.8457L12.7334 26.9304L15.0895 35.7197L17.4173 26.6764V26.6623C17.5114 26.3237 17.5772 26.0416 17.6148 25.8158C17.6619 25.5807 17.6995 25.2985 17.7277 24.9693H18.4754C18.2967 25.3362 18.1651 25.6324 18.0804 25.8582C18.0052 26.0745 17.9252 26.3425 17.8406 26.6623L15.7244 34.8591C15.6491 35.1789 15.6021 35.4235 15.5833 35.5927C15.5739 35.762 15.6068 35.9831 15.682 36.2558H11.0122L8.52922 26.9304C8.41635 26.4883 8.29878 26.1262 8.17651 25.844C8.06365 25.5619 7.92257 25.2703 7.75327 24.9693H12.3948ZM21.3076 33.9844C21.3076 34.4829 21.3735 34.845 21.5051 35.0707C21.6462 35.2965 21.8437 35.4093 22.0977 35.4093C22.3234 35.4093 22.5162 35.3341 22.6761 35.1836C22.8454 35.0331 22.9724 34.8309 23.057 34.577C23.1511 34.323 23.1981 34.0503 23.1981 33.7587L23.5085 33.6176C23.5085 34.2478 23.4003 34.7792 23.184 35.2118C22.9677 35.6445 22.6244 35.9737 22.1541 36.1994C21.6933 36.4251 21.0913 36.538 20.3483 36.538C19.6241 36.538 18.9892 36.3875 18.4437 36.0865C17.9076 35.7856 17.6395 35.2824 17.6395 34.577C17.6395 33.9938 17.837 33.5236 18.2321 33.1662C18.6271 32.8087 19.0786 32.5501 19.5864 32.3902C20.0943 32.2303 20.6681 32.0892 21.3076 31.967L21.5898 31.9105C21.5992 31.9105 21.6039 31.9105 21.6039 31.9105C21.6133 31.9105 21.6227 31.9058 21.6321 31.8964C22.046 31.8118 22.3657 31.7083 22.5915 31.586C22.8172 31.4544 22.9724 31.2898 23.057 31.0923C23.1511 30.8947 23.1981 30.6408 23.1981 30.3304C23.1981 29.9918 23.1276 29.7426 22.9865 29.5827C22.8454 29.4228 22.6291 29.3429 22.3375 29.3429C21.9989 29.3429 21.7356 29.4322 21.5475 29.6109C21.3688 29.7802 21.1807 30.0389 20.9831 30.3869C20.7856 30.6972 20.6869 30.8524 20.6869 30.8524C20.4329 31.2192 20.1084 31.4403 19.7134 31.5155C19.3278 31.5813 18.9704 31.4967 18.6412 31.2616C18.312 31.017 18.0957 30.6549 17.9922 30.1752C18.566 29.8178 19.2808 29.5216 20.1367 29.2864C20.9926 29.0419 21.8908 28.9196 22.8313 28.9196C24.007 28.9196 24.924 29.103 25.5824 29.4698C26.2502 29.8366 26.5841 30.4715 26.5841 31.3744L23.438 31.1346C23.3909 31.3885 23.3016 31.5719 23.1699 31.6848C23.0476 31.7977 22.8266 31.9387 22.5068 32.108L22.3375 32.1927C21.9801 32.3808 21.7168 32.6206 21.5475 32.9122C21.3876 33.2038 21.3076 33.5612 21.3076 33.9844ZM26.5841 33.011C26.5841 33.6976 26.5935 34.2431 26.6123 34.6475C26.6405 35.0519 26.7016 35.588 26.7957 36.2558H23.4097C23.3063 35.9078 23.2451 35.5786 23.2263 35.2683C23.2075 34.9485 23.1981 34.3842 23.1981 33.5753V31.1064L26.5841 31.3744V33.011ZM37.2426 33.011C37.2426 33.6976 37.252 34.2431 37.2708 34.6475C37.2991 35.0519 37.3602 35.588 37.4543 36.2558H33.6451C33.7391 35.588 33.7956 35.0519 33.8144 34.6475C33.8426 34.2431 33.8567 33.6976 33.8567 33.011V30.6408C33.8567 30.3586 33.8097 30.1423 33.7156 29.9918C33.6216 29.8413 33.4711 29.7661 33.2641 29.7661C32.9726 29.7661 32.681 29.8978 32.3894 30.1611C32.1073 30.4245 31.8204 30.843 31.5288 31.4167V30.7537C31.8957 30.1423 32.3142 29.6862 32.7845 29.3852C33.2641 29.0748 33.8849 28.9196 34.6467 28.9196C35.4744 28.9196 36.114 29.15 36.5654 29.6109C37.0169 30.0718 37.2426 30.843 37.2426 31.9246V33.011ZM31.7405 29.2018C31.6464 29.8696 31.5853 30.4057 31.5571 30.8101C31.5383 31.2145 31.5288 31.76 31.5288 32.4466V33.011C31.5288 33.6976 31.5383 34.2431 31.5571 34.6475C31.5853 35.0519 31.6464 35.588 31.7405 36.2558H27.9313C28.0253 35.588 28.0818 35.0519 28.1006 34.6475C28.1288 34.2431 28.1429 33.6976 28.1429 33.011V32.4466C28.1429 31.76 28.1288 31.2145 28.1006 30.8101C28.0818 30.4057 28.0253 29.8696 27.9313 29.2018H31.7405ZM48.1819 33.011C48.1819 33.6976 48.1913 34.2431 48.2101 34.6475C48.2384 35.0519 48.2995 35.588 48.3936 36.2558H44.5844C44.6784 35.588 44.7348 35.0519 44.7537 34.6475C44.7819 34.2431 44.796 33.6976 44.796 33.011V30.6408C44.796 30.3586 44.749 30.1423 44.6549 29.9918C44.5608 29.8413 44.4104 29.7661 44.2034 29.7661C43.9119 29.7661 43.6203 29.8978 43.3287 30.1611C43.0466 30.4245 42.7597 30.843 42.4681 31.4167V30.7537C42.835 30.1423 43.2535 29.6862 43.7238 29.3852C44.2034 29.0748 44.8242 28.9196 45.586 28.9196C46.4137 28.9196 47.0533 29.15 47.5047 29.6109C47.9562 30.0718 48.1819 30.843 48.1819 31.9246V33.011ZM42.6798 29.2018C42.5857 29.8696 42.5246 30.4057 42.4964 30.8101C42.4776 31.2145 42.4681 31.76 42.4681 32.4466V33.011C42.4681 33.6976 42.4776 34.2431 42.4964 34.6475C42.5246 35.0519 42.5857 35.588 42.6798 36.2558H38.8706C38.9646 35.588 39.0211 35.0519 39.0399 34.6475C39.0681 34.2431 39.0822 33.6976 39.0822 33.011V32.4466C39.0822 31.76 39.0681 31.2145 39.0399 30.8101C39.0211 30.4057 38.9646 29.8696 38.8706 29.2018H42.6798ZM52.9131 33.9844C52.9131 34.4829 52.9789 34.845 53.1106 35.0707C53.2517 35.2965 53.4492 35.4093 53.7032 35.4093C53.9289 35.4093 54.1217 35.3341 54.2816 35.1836C54.4509 35.0331 54.5779 34.8309 54.6625 34.577C54.7566 34.323 54.8036 34.0503 54.8036 33.7587L55.114 33.6176C55.114 34.2478 55.0058 34.7792 54.7895 35.2118C54.5732 35.6445 54.2299 35.9737 53.7596 36.1994C53.2987 36.4251 52.6968 36.538 51.9538 36.538C51.2295 36.538 50.5947 36.3875 50.0492 36.0865C49.5131 35.7856 49.245 35.2824 49.245 34.577C49.245 33.9938 49.4425 33.5236 49.8375 33.1662C50.2326 32.8087 50.684 32.5501 51.1919 32.3902C51.6998 32.2303 52.2735 32.0892 52.9131 31.967L53.1953 31.9105C53.2047 31.9105 53.2094 31.9105 53.2094 31.9105C53.2188 31.9105 53.2282 31.9058 53.2376 31.8964C53.6514 31.8118 53.9712 31.7083 54.1969 31.586C54.4227 31.4544 54.5779 31.2898 54.6625 31.0923C54.7566 30.8947 54.8036 30.6408 54.8036 30.3304C54.8036 29.9918 54.7331 29.7426 54.592 29.5827C54.4509 29.4228 54.2346 29.3429 53.943 29.3429C53.6044 29.3429 53.3411 29.4322 53.1529 29.6109C52.9742 29.7802 52.7861 30.0389 52.5886 30.3869C52.3911 30.6972 52.2923 30.8524 52.2923 30.8524C52.0384 31.2192 51.7139 31.4403 51.3189 31.5155C50.9333 31.5813 50.5759 31.4967 50.2467 31.2616C49.9175 31.017 49.7012 30.6549 49.5977 30.1752C50.1714 29.8178 50.8862 29.5216 51.7421 29.2864C52.598 29.0419 53.4962 28.9196 54.4368 28.9196C55.6125 28.9196 56.5295 29.103 57.1879 29.4698C57.8556 29.8366 58.1895 30.4715 58.1895 31.3744L55.0434 31.1346C54.9964 31.3885 54.9071 31.5719 54.7754 31.6848C54.6531 31.7977 54.4321 31.9387 54.1123 32.108L53.943 32.1927C53.5856 32.3808 53.3222 32.6206 53.1529 32.9122C52.9931 33.2038 52.9131 33.5612 52.9131 33.9844ZM58.1895 33.011C58.1895 33.6976 58.1989 34.2431 58.2178 34.6475C58.246 35.0519 58.3071 35.588 58.4012 36.2558H55.0152C54.9118 35.9078 54.8506 35.5786 54.8318 35.2683C54.813 34.9485 54.8036 34.3842 54.8036 33.5753V31.1064L58.1895 31.3744V33.011ZM67.7806 29.2018C67.6866 29.7003 67.6395 30.5938 67.6395 31.8823V36.3969C67.6395 37.0835 67.6489 37.629 67.6678 38.0335C67.696 38.4379 67.7571 38.974 67.8512 39.6418H64.042C64.136 38.974 64.1925 38.4379 64.2113 38.0335C64.2395 37.629 64.2536 37.0835 64.2536 36.3969V32.4466C64.2536 31.76 64.2395 31.2145 64.2113 30.8101C64.1925 30.4057 64.136 29.8696 64.042 29.2018H67.7806ZM69.657 35.8326C70.0802 35.8326 70.4188 35.5975 70.6728 35.1272C70.9267 34.6475 71.0537 33.848 71.0537 32.7288C71.0537 31.8447 70.9173 31.1299 70.6446 30.5844C70.3718 30.0389 69.9439 29.7661 69.3607 29.7661C69.0598 29.7661 68.7776 29.8507 68.5142 30.02C68.2603 30.1799 68.0487 30.4574 67.8794 30.8524C67.7195 31.238 67.6395 31.7412 67.6395 32.362H67.3574C67.3574 31.7036 67.4561 31.1205 67.6537 30.6126C67.8512 30.1047 68.1945 29.6956 68.6835 29.3852C69.1726 29.0748 69.8263 28.9196 70.6446 28.9196C71.3124 28.9196 71.9472 29.0278 72.5492 29.2441C73.1605 29.4604 73.6731 29.8507 74.0869 30.4151C74.5102 30.9794 74.7218 31.7506 74.7218 32.7288C74.7218 33.707 74.5149 34.4782 74.1011 35.0425C73.6966 35.6069 73.2028 35.9972 72.6197 36.2135C72.0366 36.4298 71.444 36.538 70.8421 36.538C70.1461 36.538 69.5441 36.4298 69.0362 36.2135C68.5378 35.9878 68.0722 35.6304 67.6395 35.1413V34.4923C67.9405 34.9062 68.2603 35.2353 68.5989 35.4799C68.9469 35.715 69.2996 35.8326 69.657 35.8326ZM81.4925 31.7695C81.4925 30.9324 81.422 30.321 81.2809 29.9354C81.1492 29.5404 80.9141 29.3429 80.5755 29.3429C80.1898 29.3429 79.8936 29.5874 79.6867 30.0765C79.4797 30.5656 79.3763 31.3556 79.3763 32.4466C79.3763 33.0768 79.4703 33.6364 79.6584 34.1255C79.856 34.6146 80.1475 35.0002 80.5331 35.2824C80.9188 35.5551 81.389 35.6915 81.944 35.6915C82.5553 35.6915 83.1337 35.5222 83.6793 35.1836C84.2248 34.845 84.648 34.2619 84.949 33.4342H85.3017C84.9631 34.45 84.4223 35.2212 83.6793 35.7479C82.9362 36.2746 81.9581 36.538 80.7448 36.538C79.8607 36.538 79.033 36.3969 78.2617 36.1147C77.4999 35.8326 76.8838 35.4046 76.4136 34.8309C75.9433 34.2572 75.7082 33.5565 75.7082 32.7288C75.7082 31.9011 75.9433 31.2004 76.4136 30.6267C76.8838 30.053 77.4952 29.625 78.2476 29.3429C79.0001 29.0607 79.7995 28.9196 80.646 28.9196C81.5207 28.9196 82.2873 29.0654 82.9456 29.357C83.604 29.6391 84.1072 30.0295 84.4552 30.5279C84.8126 31.0264 85.0007 31.5813 85.0195 32.1927H78.1912V31.7695H81.4925ZM91.798 31.7695C91.798 30.9324 91.7275 30.321 91.5864 29.9354C91.4547 29.5404 91.2196 29.3429 90.881 29.3429C90.4954 29.3429 90.1991 29.5874 89.9922 30.0765C89.7853 30.5656 89.6818 31.3556 89.6818 32.4466C89.6818 33.0768 89.7759 33.6364 89.964 34.1255C90.1615 34.6146 90.4531 35.0002 90.8387 35.2824C91.2243 35.5551 91.6946 35.6915 92.2495 35.6915C92.8608 35.6915 93.4393 35.5222 93.9848 35.1836C94.5303 34.845 94.9535 34.2619 95.2545 33.4342H95.6072C95.2686 34.45 94.7278 35.2212 93.9848 35.7479C93.2418 36.2746 92.2636 36.538 91.0503 36.538C90.1662 36.538 89.3385 36.3969 88.5673 36.1147C87.8054 35.8326 87.1894 35.4046 86.7191 34.8309C86.2488 34.2572 86.0137 33.5565 86.0137 32.7288C86.0137 31.9011 86.2488 31.2004 86.7191 30.6267C87.1894 30.053 87.8007 29.625 88.5532 29.3429C89.3056 29.0607 90.1051 28.9196 90.9515 28.9196C91.8263 28.9196 92.5928 29.0654 93.2512 29.357C93.9095 29.6391 94.4127 30.0295 94.7607 30.5279C95.1181 31.0264 95.3063 31.5813 95.3251 32.1927H88.4967V31.7695H91.798ZM13.6441 43.3802L15.6192 41.6872L17.5943 43.3802L15.6192 45.0731L13.6441 43.3802ZM17.5238 46.2018C17.4297 46.8696 17.3686 47.4057 17.3404 47.8101C17.3216 48.2145 17.3122 48.76 17.3122 49.4466V50.011C17.3122 50.6976 17.3216 51.2431 17.3404 51.6475C17.3686 52.0519 17.4297 52.588 17.5238 53.2558H13.7146C13.8087 52.588 13.8651 52.0519 13.8839 51.6475C13.9121 51.2431 13.9262 50.6976 13.9262 50.011V49.4466C13.9262 48.76 13.9121 48.2145 13.8839 47.8101C13.8651 47.4057 13.8087 46.8696 13.7146 46.2018H17.5238ZM28.0393 50.011C28.0393 50.6976 28.0487 51.2431 28.0675 51.6475C28.0957 52.0519 28.1569 52.588 28.2509 53.2558H24.4417C24.5358 52.588 24.5922 52.0519 24.611 51.6475C24.6392 51.2431 24.6534 50.6976 24.6534 50.011V47.6408C24.6534 47.3586 24.6063 47.1423 24.5123 46.9918C24.4182 46.8413 24.2677 46.7661 24.0608 46.7661C23.7692 46.7661 23.4777 46.8978 23.1861 47.1611C22.9039 47.4245 22.6171 47.843 22.3255 48.4167V47.7537C22.6923 47.1423 23.1109 46.6862 23.5811 46.3852C24.0608 46.0748 24.6816 45.9196 25.4434 45.9196C26.2711 45.9196 26.9106 46.15 27.3621 46.6109C27.8136 47.0718 28.0393 47.843 28.0393 48.9246V50.011ZM22.5371 46.2018C22.4431 46.8696 22.3819 47.4057 22.3537 47.8101C22.3349 48.2145 22.3255 48.76 22.3255 49.4466V50.011C22.3255 50.6976 22.3349 51.2431 22.3537 51.6475C22.3819 52.0519 22.4431 52.588 22.5371 53.2558H18.7279C18.822 52.588 18.8784 52.0519 18.8972 51.6475C18.9255 51.2431 18.9396 50.6976 18.9396 50.011V49.4466C18.9396 48.76 18.9255 48.2145 18.8972 47.8101C18.8784 47.4057 18.822 46.8696 18.7279 46.2018H22.5371ZM34.1791 53.2558C34.2543 52.7762 34.3061 52.2965 34.3343 51.8168C34.3719 51.3371 34.3907 50.6882 34.3907 49.8699V45.3553C34.3907 44.537 34.3719 43.888 34.3343 43.4084C34.3061 42.9287 34.2543 42.449 34.1791 41.9693H39.0464C40.2032 41.9693 41.1955 42.0493 42.0232 42.2092C42.8509 42.3597 43.5186 42.6606 44.0265 43.1121C44.5438 43.5542 44.8025 44.1843 44.8025 45.0026C44.8025 45.8209 44.5438 46.4557 44.0265 46.9072C43.5186 47.3492 42.8509 47.6502 42.0232 47.8101C41.1955 47.9606 40.2032 48.0358 39.0464 48.0358H38.341V49.8699C38.341 50.6882 38.3551 51.3371 38.3833 51.8168C38.4209 52.2965 38.4774 52.7762 38.5526 53.2558H34.1791ZM38.9899 47.6126C39.5919 47.6126 40.0528 47.4198 40.3725 47.0342C40.6923 46.6391 40.8522 45.9619 40.8522 45.0026C40.8522 44.0432 40.6923 43.3707 40.3725 42.9851C40.0528 42.5901 39.5919 42.3926 38.9899 42.3926H38.341V47.6126H38.9899ZM48.1874 50.9844C48.1874 51.4829 48.2533 51.845 48.385 52.0707C48.526 52.2965 48.7235 52.4093 48.9775 52.4093C49.2032 52.4093 49.396 52.3341 49.5559 52.1836C49.7252 52.0331 49.8522 51.8309 49.9368 51.577C50.0309 51.323 50.0779 51.0503 50.0779 50.7587L50.3883 50.6176C50.3883 51.2478 50.2801 51.7792 50.0638 52.2118C49.8475 52.6445 49.5042 52.9737 49.0339 53.1994C48.5731 53.4251 47.9711 53.538 47.2281 53.538C46.5039 53.538 45.869 53.3875 45.3235 53.0865C44.7874 52.7856 44.5193 52.2824 44.5193 51.577C44.5193 50.9938 44.7168 50.5236 45.1119 50.1662C45.5069 49.8087 45.9584 49.5501 46.4663 49.3902C46.9741 49.2303 47.5479 49.0892 48.1874 48.967L48.4696 48.9105C48.479 48.9105 48.4837 48.9105 48.4837 48.9105C48.4931 48.9105 48.5025 48.9058 48.5119 48.8964C48.9258 48.8118 49.2455 48.7083 49.4713 48.586C49.697 48.4544 49.8522 48.2898 49.9368 48.0923C50.0309 47.8947 50.0779 47.6408 50.0779 47.3304C50.0779 46.9918 50.0074 46.7426 49.8663 46.5827C49.7252 46.4228 49.5089 46.3429 49.2173 46.3429C48.8787 46.3429 48.6154 46.4322 48.4273 46.6109C48.2486 46.7802 48.0605 47.0389 47.863 47.3869C47.6654 47.6972 47.5667 47.8524 47.5667 47.8524C47.3127 48.2192 46.9883 48.4403 46.5932 48.5155C46.2076 48.5813 45.8502 48.4967 45.521 48.2616C45.1918 48.017 44.9755 47.6549 44.872 47.1752C45.4458 46.8178 46.1606 46.5216 47.0165 46.2864C47.8724 46.0419 48.7706 45.9196 49.7111 45.9196C50.8868 45.9196 51.8038 46.103 52.4622 46.4698C53.13 46.8366 53.4639 47.4715 53.4639 48.3744L50.3178 48.1346C50.2707 48.3885 50.1814 48.5719 50.0497 48.6848C49.9274 48.7977 49.7064 48.9387 49.3866 49.108L49.2173 49.1927C48.8599 49.3808 48.5966 49.6206 48.4273 49.9122C48.2674 50.2038 48.1874 50.5612 48.1874 50.9844ZM53.4639 50.011C53.4639 50.6976 53.4733 51.2431 53.4921 51.6475C53.5203 52.0519 53.5814 52.588 53.6755 53.2558H50.2895C50.1861 52.9078 50.125 52.5786 50.1061 52.2683C50.0873 51.9485 50.0779 51.3842 50.0779 50.5753V48.1064L53.4639 48.3744V50.011ZM58.4087 48.7553C58.8789 48.0782 59.3022 47.542 59.6784 47.147C60.0546 46.7426 60.5249 46.4416 61.0892 46.2441C61.6535 46.0372 62.3307 46.0231 63.1208 46.2018C63.196 46.6626 63.1631 47.053 63.022 47.3727C62.8903 47.6831 62.6693 47.8995 62.3589 48.0217C62.0579 48.1346 61.6911 48.1252 61.2585 47.9935C60.9105 47.89 60.6095 47.8477 60.3556 47.8665C60.1016 47.8853 59.8195 48.0123 59.5091 48.2475C59.1987 48.4732 58.8319 48.8494 58.4087 49.3761V48.7553ZM58.6203 46.2018C58.5262 46.8696 58.4651 47.4057 58.4369 47.8101C58.4181 48.2145 58.4087 48.76 58.4087 49.4466V50.011C58.4087 50.6976 58.4181 51.2431 58.4369 51.6475C58.4651 52.0519 58.5262 52.588 58.6203 53.2558H54.8111C54.9051 52.588 54.9616 52.0519 54.9804 51.6475C55.0086 51.2431 55.0227 50.6976 55.0227 50.011V49.4466C55.0227 48.76 55.0086 48.2145 54.9804 47.8101C54.9616 47.4057 54.9051 46.8696 54.8111 46.2018H58.6203ZM63.8766 43.3802L65.8518 41.6872L67.8269 43.3802L65.8518 45.0731L63.8766 43.3802ZM67.7564 46.2018C67.6623 46.8696 67.6012 47.4057 67.573 47.8101C67.5542 48.2145 67.5448 48.76 67.5448 49.4466V50.011C67.5448 50.6976 67.5542 51.2431 67.573 51.6475C67.6012 52.0519 67.6623 52.588 67.7564 53.2558H63.9472C64.0412 52.588 64.0977 52.0519 64.1165 51.6475C64.1447 51.2431 64.1588 50.6976 64.1588 50.011V49.4466C64.1588 48.76 64.1447 48.2145 64.1165 47.8101C64.0977 47.4057 64.0412 46.8696 63.9472 46.2018H67.7564ZM68.5406 51.5629C68.7287 51.1302 69.0344 50.8527 69.4576 50.7305C69.8809 50.6082 70.29 50.6505 70.685 50.8575C71.0895 51.055 71.3575 51.37 71.4892 51.8027L71.5456 52.0002C71.6209 52.2636 71.6914 52.4705 71.7572 52.621C71.8231 52.762 71.9312 52.8796 72.0817 52.9737C72.2322 53.0583 72.4391 53.1006 72.7025 53.1006C73.0411 53.1006 73.2903 53.0113 73.4502 52.8326C73.6195 52.6445 73.7042 52.4046 73.7042 52.1131C73.7042 51.9156 73.6571 51.751 73.5631 51.6193C73.4784 51.4782 73.2997 51.3277 73.027 51.1678C72.7636 50.9985 72.3545 50.7869 71.7996 50.533L71.6303 50.4483C71.5738 50.4201 71.5174 50.3966 71.461 50.3778C71.4045 50.3496 71.3481 50.3213 71.2917 50.2931C70.7556 50.0486 70.3276 49.837 70.0078 49.6583C69.6881 49.4702 69.4153 49.2397 69.1896 48.967C68.9638 48.6848 68.851 48.3509 68.851 47.9653C68.851 47.4762 69.0344 47.0812 69.4012 46.7802C69.7774 46.4698 70.2289 46.2488 70.7556 46.1171C71.2917 45.9854 71.8231 45.9196 72.3498 45.9196C73.2339 45.9196 74.0239 46.0842 74.7199 46.4134C75.4253 46.7426 75.9097 47.1799 76.1731 47.7255C75.8815 48.0358 75.5664 48.2192 75.2278 48.2757C74.8892 48.3321 74.5789 48.271 74.2967 48.0923C74.0239 47.9136 73.8311 47.6596 73.7183 47.3304C73.596 46.9448 73.4455 46.6862 73.2668 46.5545C73.0881 46.4228 72.8059 46.357 72.4203 46.357C72.1288 46.357 71.8889 46.4181 71.7008 46.5404C71.5221 46.6626 71.4328 46.8225 71.4328 47.02C71.4328 47.1705 71.4704 47.2975 71.5456 47.401C71.6209 47.5044 71.7713 47.6173 71.9971 47.7396C72.2228 47.8618 72.5708 48.0217 73.0411 48.2192L73.1257 48.2616L73.5913 48.445C74.2309 48.6989 74.7341 48.9246 75.1009 49.1222C75.4677 49.3197 75.7733 49.5783 76.0179 49.8981C76.2718 50.2179 76.3988 50.6129 76.3988 51.0832C76.3988 51.845 76.0508 52.447 75.3548 52.889C74.6588 53.3217 73.7277 53.538 72.5614 53.538C71.5456 53.538 70.6756 53.3734 69.9514 53.0442C69.2272 52.7056 68.7569 52.2118 68.5406 51.5629ZM77.8123 44.2831C78.3672 43.3896 79.0114 42.7359 79.7451 42.322C80.4881 41.8988 81.3581 41.6872 82.3551 41.6872C82.957 41.6872 83.5402 41.753 84.1045 41.8847C84.6688 42.0164 85.1391 42.2374 85.5153 42.5478C85.8915 42.8582 86.0796 43.2579 86.0796 43.747C86.0796 44.0856 85.9997 44.3818 85.8398 44.6358C85.6799 44.8803 85.4777 45.0919 85.2331 45.2706C84.9886 45.4493 84.65 45.6657 84.2173 45.9196C83.6436 46.2676 83.178 46.5827 82.8206 46.8649C82.4726 47.1376 82.1717 47.5138 81.9177 47.9935C81.6638 48.4638 81.5368 49.0422 81.5368 49.7288H81.1841C81.1841 48.9199 81.2264 48.2098 81.3111 47.5985C81.4051 46.9871 81.5133 46.4839 81.6356 46.0889C81.7578 45.6845 81.913 45.2377 82.1011 44.7486C82.261 44.3536 82.3739 44.0291 82.4397 43.7752C82.515 43.5212 82.5526 43.2532 82.5526 42.971C82.5526 42.7171 82.4962 42.5102 82.3833 42.3503C82.2798 42.1904 82.0823 42.1104 81.7907 42.1104C81.4522 42.1104 81.1982 42.2374 81.0289 42.4913C80.8596 42.7359 80.742 43.0651 80.6762 43.4789C80.6198 43.8833 80.5633 44.4947 80.5069 45.313C80.4975 45.3318 80.4928 45.3506 80.4928 45.3694C80.4928 45.3788 80.4928 45.3929 80.4928 45.4117L77.8123 44.2831ZM79.9567 52.1272L81.3675 50.7164L82.7783 52.1272L81.3675 53.538L79.9567 52.1272Z" fill="white"/>
<path d="M41.0853 4.10078V16.5039L46.5116 13.4031L52.7132 16.5039L58.1395 13.4031V1L52.7132 4.10078L46.5116 1L41.0853 4.10078Z" stroke="white" stroke-width="1.56757" stroke-linecap="round" stroke-linejoin="round"/>
<path d="M46.5116 1V13.4031" stroke="white" stroke-width="1.56757" stroke-linecap="round" stroke-linejoin="round"/>
<path d="M52.7132 4.10077V16.5039" stroke="white" stroke-width="1.56757" stroke-linecap="round" stroke-linejoin="round"/>
</svg>
